<svg id="eNG7d6yuUK01" xmlns="http://www.w3.org/2000/svg" xmlns:xlink="http://www.w3.org/1999/xlink" viewBox="0 0 640 480" shape-rendering="geometricPrecision" text-rendering="geometricPrecision"><path d="M271.03139,196.95066c0-95.10196,50.35291-172.19732,112.46637-172.19732s112.46637,77.09537,112.46637,172.19732-50.35291,172.19732-112.46637,172.19732-112.46637-77.09537-112.46637-172.19732Z" fill="#d2dbed" stroke-width="0"/><ellipse rx="15.605382" ry="22.062781" transform="translate(342.600898 117.847534)" fill="#101113" stroke-width="0"/><ellipse rx="13.183857" ry="19.910314" transform="translate(396.681617 115.695067)" stroke-width="0"/><ellipse rx="12.780271" ry="27.690585" transform="translate(377.443948 196.659194)" stroke-width="0"/><line x1="-58.771827" y1="-92.554589" x2="59.730944" y2="83.408072" transform="translate(350.403589 377.219731)" fill="none" stroke="#d2dbed" stroke-width="10"/><line x1="30.634687" y1="-96.663376" x2="-34.977576" y2="87.174888" transform="translate(444.843051 373.452915)" fill="none" stroke="#d2dbed" stroke-width="10"/><ellipse rx="47.35426" ry="20.814782" transform="translate(397.488792 372.828581)" fill="#d2dbed" stroke-width="0"/><ellipse rx="15.297611" ry="25.369384" transform="translate(437.044022 343.778596)" fill="#d2dbed" stroke-width="0"/><ellipse rx="24.909817" ry="24.57649" transform="translate(402.353765 412.201121)" fill="#d2dbed" stroke-width="0"/><ellipse rx="9.666939" ry="7.560608" transform="translate(407.155731 444.338219)" fill="#d2dbed" stroke-width="0"/><ellipse rx="10.070527" ry="7.299179" transform="translate(406.752144 437.03904)" fill="#d2dbed" stroke-width="0"/><ellipse rx="5.940468" ry="6.674424" transform="translate(415.805943 430.103187)" fill="#d2dbed" stroke-width="0"/><ellipse rx="12.780271" ry="9.141326" transform="translate(377.443948 396.765958)" fill="#d2dbed" stroke-width="0"/><ellipse rx="10.61904" ry="9.141326" transform="translate(426.424983 396.765958)" fill="#d2dbed" stroke-width="0"/><ellipse rx="5.940469" ry="6.723866" transform="translate(415.805943 390.042092)" fill="#d2dbed" stroke-width="0"/><ellipse rx="5.30952" ry="8.211816" transform="translate(431.734503 385.431547)" fill="#d2dbed" stroke-width="0"/><ellipse rx="7.29415" ry="9.773113" transform="translate(365.50043 386.992845)" fill="#d2dbed" stroke-width="0"/><ellipse rx="5.35159" ry="3.146918" transform="translate(378.14617 409.054203)" fill="#d2dbed" stroke-width="0"/><ellipse rx="7.802691" ry="16.720568" transform="translate(350.403589 360.499164)" fill="#d2dbed" stroke-width="0"/><ellipse rx="3.899515" ry="2.239272" transform="translate(440.943537 362.738437)" fill="#d2dbed" stroke-width="0"/><ellipse rx="2.861447" ry="9.266845" transform="translate(455.20308 334.511751)" fill="#d2dbed" stroke-width="0"/><ellipse rx="5.180014" ry="11.310044" transform="translate(450.023066 340.703756)" fill="#d2dbed" stroke-width="0"/><ellipse rx="5.254989" ry="12.452328" transform="translate(457.596622 322.059423)" fill="#d2dbed" stroke-width="0"/></svg>